<mxfile host="app.diagrams.net" agent="Mozilla/5.0 (X11; Linux x86_64; rv:130.0) Gecko/20100101 Firefox/130.0" version="24.7.12">
  <diagram name="Page-1" id="V4OFozi4Sq1oHZLfRn7t">
    <mxGraphModel dx="1434" dy="790" grid="0" gridSize="10" guides="0" tooltips="1" connect="0" arrows="0" fold="1" page="1" pageScale="1" pageWidth="827" pageHeight="1169" background="#FFFFFF" math="0" shadow="0">
      <root>
        <mxCell id="0" />
        <mxCell id="1" parent="0" />
        <mxCell id="vLYSMhmCjFWjLB0jB5jH-2" value="" style="ellipse;whiteSpace=wrap;html=1;aspect=fixed;fillColor=#7FA8C4;strokeColor=#36393d;rounded=1;" parent="1" vertex="1">
          <mxGeometry x="100" y="40" width="680" height="680" as="geometry" />
        </mxCell>
        <mxCell id="vLYSMhmCjFWjLB0jB5jH-3" value="" style="ellipse;whiteSpace=wrap;html=1;aspect=fixed;fillColor=#6d8764;strokeColor=#3A5431;fontColor=#ffffff;rounded=1;" parent="1" vertex="1">
          <mxGeometry x="183.33705882352942" y="123.34333333333335" width="513.3333333333334" height="513.3333333333334" as="geometry" />
        </mxCell>
        <mxCell id="vLYSMhmCjFWjLB0jB5jH-4" value="" style="ellipse;whiteSpace=wrap;html=1;aspect=fixed;fillColor=#f8cecc;strokeColor=#b85450;rounded=1;" parent="1" vertex="1">
          <mxGeometry x="284.1711764705883" y="224.17333333333335" width="311.66666666666663" height="311.66666666666663" as="geometry" />
        </mxCell>
        <mxCell id="vLYSMhmCjFWjLB0jB5jH-1" value="" style="ellipse;whiteSpace=wrap;html=1;aspect=fixed;fillColor=#a0522d;strokeColor=#6D1F00;fontColor=#ffffff;rounded=1;" parent="1" vertex="1">
          <mxGeometry x="378.32" y="318.34" width="123.35" height="123.35" as="geometry" />
        </mxCell>
        <mxCell id="vLYSMhmCjFWjLB0jB5jH-6" value="Entities" style="text;html=1;align=center;verticalAlign=middle;whiteSpace=wrap;rounded=1;fontStyle=5;fontSize=14;fontColor=#F5F5F5;" parent="1" vertex="1">
          <mxGeometry x="410" y="330" width="60" height="30" as="geometry" />
        </mxCell>
        <mxCell id="vLYSMhmCjFWjLB0jB5jH-7" value="Core" style="rounded=1;whiteSpace=wrap;html=1;fontSize=14;fontColor=#000000;labelBackgroundColor=#FFFFFF;" parent="1" vertex="1">
          <mxGeometry x="409.99" y="360" width="60" height="40" as="geometry" />
        </mxCell>
        <mxCell id="vLYSMhmCjFWjLB0jB5jH-8" value="File" style="rounded=1;whiteSpace=wrap;html=1;glass=0;fontSize=14;fontColor=#000000;labelBackgroundColor=#FFFFFF;" parent="1" vertex="1">
          <mxGeometry x="509" y="311" width="60.01" height="40" as="geometry" />
        </mxCell>
        <mxCell id="vLYSMhmCjFWjLB0jB5jH-9" value="Network" style="rounded=1;whiteSpace=wrap;html=1;fontSize=14;fontColor=#000000;labelBackgroundColor=#FFFFFF;" parent="1" vertex="1">
          <mxGeometry x="408" y="454" width="70.02" height="40" as="geometry" />
        </mxCell>
        <mxCell id="vLYSMhmCjFWjLB0jB5jH-10" value="Processing" style="rounded=1;whiteSpace=wrap;html=1;fontSize=14;fontColor=#000000;labelBackgroundColor=#FFFFFF;" parent="1" vertex="1">
          <mxGeometry x="305" y="307" width="80" height="40" as="geometry" />
        </mxCell>
        <mxCell id="vLYSMhmCjFWjLB0jB5jH-12" value="Use Cases" style="text;html=1;align=center;verticalAlign=middle;whiteSpace=wrap;rounded=1;fontColor=#000000;labelBackgroundColor=none;fontStyle=5;labelBorderColor=none;fontSize=14;" parent="1" vertex="1">
          <mxGeometry x="392.48" y="250" width="95.01" height="30" as="geometry" />
        </mxCell>
        <mxCell id="vLYSMhmCjFWjLB0jB5jH-13" value="Python" style="rounded=1;whiteSpace=wrap;html=1;glass=0;fontSize=14;fontColor=#000000;labelBackgroundColor=#FFFFFF;" parent="1" vertex="1">
          <mxGeometry x="565" y="216" width="60.01" height="40" as="geometry" />
        </mxCell>
        <mxCell id="vLYSMhmCjFWjLB0jB5jH-14" value="Interface Adapters" style="text;html=1;align=center;verticalAlign=middle;whiteSpace=wrap;rounded=1;fontStyle=5;fontSize=14;fontColor=#FFFFFF;" parent="1" vertex="1">
          <mxGeometry x="375" y="150" width="130" height="30" as="geometry" />
        </mxCell>
        <mxCell id="vLYSMhmCjFWjLB0jB5jH-15" value="Framework and Drivers" style="text;html=1;align=center;verticalAlign=middle;whiteSpace=wrap;rounded=1;fontColor=#000000;labelBackgroundColor=none;fontStyle=5;labelBorderColor=none;fontSize=14;" parent="1" vertex="1">
          <mxGeometry x="397.48" y="60" width="95.01" height="30" as="geometry" />
        </mxCell>
        <mxCell id="vLYSMhmCjFWjLB0jB5jH-18" value="&lt;font style=&quot;font-size: 19px;&quot;&gt;Python Interpreter&lt;br style=&quot;font-size: 19px;&quot;&gt;&lt;/font&gt;" style="text;html=1;align=center;verticalAlign=middle;whiteSpace=wrap;rounded=1;fontSize=19;fontStyle=1;fontColor=#FFFFFF;" parent="1" vertex="1">
          <mxGeometry x="610" y="140" width="50" height="20" as="geometry" />
        </mxCell>
        <mxCell id="vLYSMhmCjFWjLB0jB5jH-19" value="&lt;font&gt;UI&lt;/font&gt;" style="text;html=1;align=center;verticalAlign=middle;whiteSpace=wrap;rounded=1;fontSize=20;fontStyle=1;fontColor=#FFFFFF;" parent="1" vertex="1">
          <mxGeometry x="690" y="475" width="60" height="30" as="geometry" />
        </mxCell>
        <mxCell id="vLYSMhmCjFWjLB0jB5jH-20" value="&lt;font&gt;Device&lt;/font&gt;" style="text;html=1;align=center;verticalAlign=middle;whiteSpace=wrap;rounded=1;fontSize=20;fontStyle=1;fontColor=#FFFFFF;" parent="1" vertex="1">
          <mxGeometry x="135" y="475" width="60" height="30" as="geometry" />
        </mxCell>
        <mxCell id="vLYSMhmCjFWjLB0jB5jH-22" value="&lt;font&gt;DB&lt;/font&gt;" style="text;html=1;align=center;verticalAlign=middle;whiteSpace=wrap;rounded=1;fontSize=20;fontStyle=1;fontColor=#FFFFFF;" parent="1" vertex="1">
          <mxGeometry x="160" y="194.17000000000002" width="60" height="30" as="geometry" />
        </mxCell>
        <mxCell id="vLYSMhmCjFWjLB0jB5jH-24" value="&lt;font style=&quot;font-size: 20px;&quot;&gt;Web&lt;/font&gt;" style="text;html=1;align=center;verticalAlign=middle;whiteSpace=wrap;rounded=1;fontSize=20;fontStyle=1;fontColor=#FFFFFF;" parent="1" vertex="1">
          <mxGeometry x="411" y="666" width="60" height="30" as="geometry" />
        </mxCell>
        <mxCell id="vLYSMhmCjFWjLB0jB5jH-26" value="&lt;font style=&quot;font-size: 19px;&quot;&gt;Python libraries&lt;br style=&quot;font-size: 19px;&quot;&gt;&lt;/font&gt;" style="text;html=1;align=center;verticalAlign=middle;whiteSpace=wrap;rounded=1;fontSize=19;fontStyle=1;fontColor=#FFFFFF;" parent="1" vertex="1">
          <mxGeometry x="712" y="330" width="50" height="20" as="geometry" />
        </mxCell>
        <mxCell id="vLYSMhmCjFWjLB0jB5jH-27" value="&lt;font&gt;Controllers&lt;/font&gt;" style="text;html=1;align=center;verticalAlign=middle;whiteSpace=wrap;rounded=1;fontSize=20;fontStyle=1;fontColor=#FFFFFF;" parent="1" vertex="1">
          <mxGeometry x="250.00000000000003" y="240" width="60" height="30" as="geometry" />
        </mxCell>
        <mxCell id="vLYSMhmCjFWjLB0jB5jH-28" value="&lt;font&gt;Presenters&lt;/font&gt;" style="text;html=1;align=center;verticalAlign=middle;whiteSpace=wrap;rounded=1;fontSize=20;fontStyle=1;fontColor=#FFFFFF;" parent="1" vertex="1">
          <mxGeometry x="413" y="563" width="60" height="30" as="geometry" />
        </mxCell>
        <mxCell id="vLYSMhmCjFWjLB0jB5jH-36" value="" style="shape=flexArrow;endArrow=classic;html=1;rounded=1;fillColor=#F8CECC;strokeColor=none;" parent="1" edge="1">
          <mxGeometry width="50" height="50" relative="1" as="geometry">
            <mxPoint x="440" y="453" as="sourcePoint" />
            <mxPoint x="440" y="412" as="targetPoint" />
          </mxGeometry>
        </mxCell>
        <mxCell id="vLYSMhmCjFWjLB0jB5jH-37" value="" style="shape=flexArrow;endArrow=classic;html=1;rounded=1;fillColor=#6d8764;strokeColor=none;" parent="1" edge="1">
          <mxGeometry width="50" height="50" relative="1" as="geometry">
            <mxPoint x="440" y="546" as="sourcePoint" />
            <mxPoint x="440" y="505" as="targetPoint" />
          </mxGeometry>
        </mxCell>
        <mxCell id="vLYSMhmCjFWjLB0jB5jH-38" value="" style="shape=flexArrow;endArrow=classic;html=1;rounded=1;fillColor=#7FA8C4;strokeColor=none;" parent="1" edge="1">
          <mxGeometry width="50" height="50" relative="1" as="geometry">
            <mxPoint x="441" y="648" as="sourcePoint" />
            <mxPoint x="441" y="607" as="targetPoint" />
          </mxGeometry>
        </mxCell>
      </root>
    </mxGraphModel>
  </diagram>
</mxfile>
